<svg width="472" height="118" viewBox="0 0 472 118" fill="none" xmlns="http://www.w3.org/2000/svg">
<path d="M157.328 91.7286C153.636 91.7286 150.673 90.9514 148.439 89.3971C146.253 87.7943 144.65 85.4871 143.63 82.4757C142.659 79.4643 142.173 75.8457 142.173 71.62V51.8757C142.173 47.5529 142.61 43.8857 143.485 40.8743C144.408 37.8143 146.01 35.4829 148.293 33.88C150.625 32.2771 153.855 31.4757 157.983 31.4757C161.675 31.4757 164.638 32.1071 166.872 33.37C169.155 34.5843 170.806 36.4786 171.826 39.0529C172.846 41.5786 173.356 44.7843 173.356 48.67V50.8557H165.633V49.0343C165.633 46.46 165.463 44.3714 165.123 42.7686C164.783 41.1171 164.079 39.9029 163.01 39.1257C161.99 38.3 160.363 37.8871 158.129 37.8871C155.7 37.8871 153.928 38.4457 152.81 39.5629C151.742 40.68 151.062 42.21 150.77 44.1529C150.528 46.0471 150.406 48.2086 150.406 50.6371V72.4943C150.406 75.3114 150.6 77.6671 150.989 79.5614C151.426 81.4557 152.228 82.8643 153.393 83.7871C154.559 84.71 156.21 85.1714 158.348 85.1714C160.485 85.1714 162.136 84.6614 163.302 83.6414C164.468 82.6214 165.269 81.1157 165.706 79.1243C166.143 77.1329 166.362 74.6557 166.362 71.6929V67.6129H158.858V61.7843H173.793V91H168.62L167.819 84.2243C167.042 86.41 165.828 88.2071 164.176 89.6157C162.525 91.0243 160.242 91.7286 157.328 91.7286ZM182.693 91V31.9857H190.78V91H182.693ZM206.812 91V38.1057H196.831V31.9857H224.735V38.1057H215.045V91H206.812ZM229.404 71.9843V66.0829H245.652V71.9843H229.404ZM267.748 91.6557C264.348 91.6557 261.507 90.9271 259.224 89.47C256.99 88.0129 255.29 85.9971 254.124 83.4229C252.958 80.8486 252.278 77.8614 252.084 74.4614L259.37 72.4943C259.515 74.5829 259.831 76.5986 260.317 78.5414C260.851 80.4843 261.701 82.0871 262.867 83.35C264.033 84.5643 265.66 85.1714 267.748 85.1714C269.885 85.1714 271.488 84.5886 272.557 83.4229C273.674 82.2086 274.233 80.4843 274.233 78.25C274.233 75.5786 273.625 73.4414 272.411 71.8386C271.197 70.1871 269.667 68.5357 267.821 66.8843L257.913 58.1414C255.97 56.4414 254.537 54.5957 253.614 52.6043C252.691 50.5643 252.23 48.0629 252.23 45.1C252.23 40.7771 253.468 37.4257 255.945 35.0457C258.423 32.6657 261.798 31.4757 266.073 31.4757C268.404 31.4757 270.444 31.7914 272.193 32.4229C273.99 33.0057 275.471 33.9286 276.637 35.1914C277.851 36.4543 278.798 38.0571 279.478 40C280.207 41.8943 280.693 44.1286 280.935 46.7029L273.941 48.5971C273.795 46.6543 273.504 44.8814 273.067 43.2786C272.63 41.6271 271.853 40.3157 270.735 39.3443C269.667 38.3243 268.113 37.8143 266.073 37.8143C264.033 37.8143 262.43 38.3729 261.264 39.49C260.147 40.5586 259.588 42.1614 259.588 44.2986C259.588 46.0957 259.88 47.5771 260.463 48.7429C261.094 49.9086 262.09 51.0986 263.45 52.3129L273.431 61.0557C275.665 62.9986 277.633 65.33 279.333 68.05C281.033 70.7214 281.883 73.9029 281.883 77.5943C281.883 80.5086 281.275 83.0343 280.061 85.1714C278.847 87.26 277.171 88.8629 275.034 89.98C272.945 91.0971 270.517 91.6557 267.748 91.6557ZM288.269 91V31.9857H311.146V38.1057H296.502V57.6314H308.378V63.46H296.502V85.0986H311.292V91H288.269ZM314.733 91L327.264 31.9857H335.206L347.81 91H340.014L337.318 76.1371H325.297L322.456 91H314.733ZM326.39 70.2357H336.226L331.271 43.6429L326.39 70.2357ZM353.798 91V31.9857H365.673C369.608 31.9857 372.862 32.52 375.436 33.5886C378.011 34.6086 379.905 36.2843 381.119 38.6157C382.382 40.8986 383.013 43.91 383.013 47.65C383.013 49.9329 382.771 52.0214 382.285 53.9157C381.799 55.7614 381.022 57.34 379.953 58.6514C378.885 59.9143 377.476 60.8371 375.728 61.42L384.106 91H376.165L368.442 63.3143H362.031V91H353.798ZM362.031 57.4129H365.163C367.495 57.4129 369.389 57.1214 370.846 56.5386C372.303 55.9557 373.372 54.96 374.052 53.5514C374.732 52.1429 375.072 50.1757 375.072 47.65C375.072 44.2014 374.441 41.7243 373.178 40.2186C371.915 38.6643 369.413 37.8871 365.673 37.8871H362.031V57.4129ZM406.368 91.6557C402.191 91.6557 398.937 90.7814 396.605 89.0329C394.322 87.2843 392.72 84.9286 391.797 81.9657C390.922 79.0029 390.485 75.7 390.485 72.0571V51.22C390.485 47.2371 390.922 43.7643 391.797 40.8014C392.72 37.8386 394.322 35.5557 396.605 33.9529C398.937 32.3014 402.191 31.4757 406.368 31.4757C410.06 31.4757 412.974 32.1557 415.111 33.5157C417.297 34.8757 418.851 36.8186 419.774 39.3443C420.745 41.87 421.231 44.9057 421.231 48.4514V53.1143H413.435V48.9614C413.435 46.7757 413.314 44.8571 413.071 43.2057C412.877 41.5057 412.294 40.1943 411.322 39.2714C410.351 38.3486 408.724 37.8871 406.441 37.8871C404.11 37.8871 402.41 38.3971 401.341 39.4171C400.272 40.3886 399.568 41.7971 399.228 43.6429C398.937 45.44 398.791 47.5529 398.791 49.9814V73.3686C398.791 76.3314 399.034 78.6871 399.52 80.4357C400.005 82.1357 400.807 83.35 401.924 84.0786C403.041 84.8071 404.547 85.1714 406.441 85.1714C408.675 85.1714 410.278 84.6857 411.25 83.7143C412.221 82.6943 412.828 81.31 413.071 79.5614C413.314 77.8129 413.435 75.7729 413.435 73.4414V69.07H421.231V73.4414C421.231 77.0357 420.794 80.2171 419.92 82.9857C419.045 85.7057 417.54 87.8429 415.402 89.3971C413.265 90.9029 410.254 91.6557 406.368 91.6557ZM429.074 91V31.9857H437.307V57.4857H452.461V31.9857H460.694V91H452.461V63.3871H437.307V91H429.074Z" fill="black"/>
<path d="M20.9745 18.4375C20.9745 18.4375 18.4375 22.8883 18.4375 30.4219C18.4375 35.4184 19.5769 38.055 20.3956 39.412C14.6394 45.4005 11.0625 53.5241 11.0625 63.9523C11.0625 90.6609 27.9881 99.5625 59 99.5625C90.0119 99.5625 106.938 90.6609 106.938 63.956C106.938 53.1664 103.567 45.0576 98.0654 39.1797C100.34 32.3904 100.011 24.9983 97.1435 18.4375C85.7049 18.4375 76.169 27.2248 75.8224 27.5419C70.2928 26.3664 64.6531 25.7866 59 25.8125C53.0816 25.8125 47.2738 26.5316 41.831 27.8886C34.1684 20.2886 24.9201 18.4375 20.9745 18.4375ZM76.287 56.9276C79.3956 56.8981 82.2792 57.1562 84.8125 57.9601C91.568 60.1099 95.875 66.316 95.875 73.2891C95.875 92.5894 85.5168 95.875 59 95.875C39.294 95.875 23.2755 92.4051 23.2755 73.9786C23.2755 66.9503 27.0957 62.9751 29.8466 60.4971C35.8941 55.0544 45.4447 57.7315 59 57.7315C65.1655 57.7315 71.0839 56.9829 76.287 56.9239V56.9276ZM38.7188 66.375C35.6655 66.375 33.1875 69.6753 33.1875 73.75C33.1875 77.8247 35.6655 81.125 38.7188 81.125C41.772 81.125 44.25 77.8247 44.25 73.75C44.25 69.6753 41.772 66.375 38.7188 66.375ZM79.2812 66.375C76.228 66.375 73.75 69.6753 73.75 73.75C73.75 77.8247 76.228 81.125 79.2812 81.125C82.3345 81.125 84.8125 77.8247 84.8125 73.75C84.8125 69.6753 82.3345 66.375 79.2812 66.375ZM38.1435 69.4873C39.0064 69.4873 39.6406 70.2211 39.6406 71.0987C39.6406 71.98 39.0064 72.7138 38.1435 72.7138C37.7169 72.7081 37.3094 72.5361 37.0078 72.2344C36.7061 71.9328 36.5341 71.5253 36.5284 71.0987C36.5284 70.2211 37.2769 69.4873 38.1435 69.4873ZM78.706 69.4873C79.5689 69.4873 80.2031 70.2211 80.2031 71.0987C80.2031 71.98 79.5689 72.7138 78.706 72.7138C78.2794 72.7081 77.8719 72.5361 77.5703 72.2344C77.2686 71.9328 77.0966 71.5253 77.0909 71.0987C77.0909 70.2211 77.8394 69.4873 78.706 69.4873Z" fill="black"/>
</svg>
