<svg width="24" height="24" viewBox="0 0 24 24" fill="none" xmlns="http://www.w3.org/2000/svg">
<path d="M16.5 4.5C18.706 4.5 20.5 6.294 20.5 8.5C20.5 13.17 14.957 17.44 12 19.523C9.043 17.44 3.5 13.17 3.5 8.5C3.5 6.294 5.294 4.5 7.5 4.5C8.14231 4.50145 8.77487 4.65716 9.34445 4.95405C9.91403 5.25093 10.404 5.68029 10.773 6.206L12 7.953L13.227 6.207C13.5956 5.68075 14.0854 5.25092 14.6551 4.95382C15.2247 4.65672 15.8575 4.50106 16.5 4.5ZM16.5 3C15.6167 2.99987 14.7464 3.21288 13.963 3.62095C13.1796 4.02902 12.5062 4.6201 12 5.344C11.4938 4.6201 10.8204 4.02902 10.037 3.62095C9.25363 3.21288 8.38332 2.99987 7.5 3C6.04131 3 4.64236 3.57946 3.61091 4.61091C2.57946 5.64236 2 7.04131 2 8.5C2 14.22 8.5 18.938 12 21.35C15.5 18.938 22 14.22 22 8.5C22 7.77773 21.8577 7.06253 21.5813 6.39524C21.3049 5.72795 20.8998 5.12164 20.3891 4.61091C19.8784 4.10019 19.272 3.69506 18.6048 3.41866C17.9375 3.14226 17.2223 3 16.5 3V3Z" fill="#4F88F4"/>
</svg>
